<svg width="107" height="40" viewBox="0 0 107 40" fill="none" xmlns="http://www.w3.org/2000/svg">
<path d="M15.6054 0C6.98512 0 0 6.98511 0 15.6054C0 24.2257 6.98512 31.2108 15.6054 31.2108V40C15.6054 40 31.2108 34.4457 31.2108 15.6054C31.2108 6.98511 24.2213 0 15.6054 0ZM10.4777 15.6054C10.4777 12.7749 12.7749 10.4777 15.6054 10.4777C18.4359 10.4777 20.7332 12.7749 20.7332 15.6054C20.7332 18.4359 18.4359 20.7332 15.6054 20.7332C12.7705 20.7287 10.4777 18.4359 10.4777 15.6054Z" fill="#605BFE"/>
<path d="M46.5428 13.1494C47.9165 13.1494 49.0494 13.5726 49.9413 14.4189C50.8397 15.2653 51.2889 16.3363 51.2889 17.6318C51.2889 18.9404 50.8397 20.0244 49.9413 20.8838C49.0494 21.7432 47.9165 22.1729 46.5428 22.1729H44.1698V27.1533H41.2108V13.1494H46.5428ZM46.5428 19.3311C47.0507 19.3311 47.4706 19.1715 47.8026 18.8525C48.1412 18.527 48.3104 18.1201 48.3104 17.6318C48.3104 17.1631 48.1412 16.7725 47.8026 16.46C47.4706 16.1475 47.0507 15.9912 46.5428 15.9912H44.1698V19.3311H46.5428Z" fill="#030229"/>
<path d="M61.5819 21.9092C61.5819 22.2542 61.5624 22.5895 61.5233 22.915H54.2284C54.326 23.5531 54.6027 24.0641 55.0585 24.4482C55.5142 24.8258 56.0708 25.0146 56.7284 25.0146C57.2688 25.0146 57.7082 24.9105 58.0468 24.7021C58.3918 24.4873 58.6034 24.2041 58.6815 23.8525H61.4452C61.2824 24.9072 60.7779 25.7536 59.9315 26.3916C59.0852 27.0296 58.0435 27.3486 56.8065 27.3486C55.856 27.3486 54.9836 27.124 54.1893 26.6748C53.4016 26.2191 52.7798 25.5973 52.3241 24.8096C51.8684 24.0153 51.6405 23.1429 51.6405 22.1924C51.6405 20.7666 52.132 19.5687 53.1151 18.5986C54.1047 17.6221 55.3156 17.1338 56.7479 17.1338C57.6203 17.1338 58.4276 17.3421 59.1698 17.7588C59.912 18.1755 60.4979 18.7516 60.9276 19.4873C61.3638 20.223 61.5819 21.0303 61.5819 21.9092ZM54.3651 21.1182H58.6425C58.6034 20.6299 58.3885 20.223 57.9979 19.8975C57.6073 19.5719 57.1483 19.4092 56.621 19.4092C56.0676 19.4092 55.5956 19.5524 55.205 19.8389C54.8143 20.1253 54.5344 20.5518 54.3651 21.1182Z" fill="#030229"/>
<path d="M68.3397 17.1338C68.8671 17.1338 69.2414 17.1924 69.4628 17.3096V19.9561C68.9615 19.8063 68.5122 19.7314 68.1151 19.7314C67.7635 19.7314 67.3729 19.8682 66.9432 20.1416C66.5201 20.4085 66.1978 20.7666 65.9764 21.2158V27.1533H63.1542V17.3291H65.9764V18.4912C66.2043 18.0876 66.5461 17.762 67.0018 17.5146C67.4641 17.2607 67.91 17.1338 68.3397 17.1338Z" fill="#030229"/>
<path d="M76.7089 15.3369C76.201 15.3369 75.7909 15.4639 75.4784 15.7178C75.1659 15.9652 75.0096 16.3428 75.0096 16.8506V17.3291H77.4315V20.0146H75.0096V27.1533H72.1971V20.0146H70.371V17.3291H72.1971V16.792C72.1971 15.5029 72.5487 14.4906 73.2518 13.7549C73.9615 13.0192 74.9022 12.6514 76.0741 12.6514C76.5494 12.6514 77.0018 12.7067 77.4315 12.8174V15.415C77.2557 15.363 77.0149 15.3369 76.7089 15.3369Z" fill="#030229"/>
<path d="M88.0077 21.9092C88.0077 22.2542 87.9882 22.5895 87.9491 22.915H80.6542C80.7518 23.5531 81.0285 24.0641 81.4843 24.4482C81.94 24.8258 82.4966 25.0146 83.1542 25.0146C83.6945 25.0146 84.134 24.9105 84.4725 24.7021C84.8176 24.4873 85.0292 24.2041 85.1073 23.8525H87.871C87.7082 24.9072 87.2037 25.7536 86.3573 26.3916C85.5109 27.0296 84.4693 27.3486 83.2323 27.3486C82.2818 27.3486 81.4094 27.124 80.6151 26.6748C79.8274 26.2191 79.2056 25.5973 78.7499 24.8096C78.2941 24.0153 78.0663 23.1429 78.0663 22.1924C78.0663 20.7666 78.5578 19.5687 79.5409 18.5986C80.5305 17.6221 81.7414 17.1338 83.1737 17.1338C84.0461 17.1338 84.8534 17.3421 85.5956 17.7588C86.3378 18.1755 86.9237 18.7516 87.3534 19.4873C87.7896 20.223 88.0077 21.0303 88.0077 21.9092ZM80.7909 21.1182H85.0682C85.0292 20.6299 84.8143 20.223 84.4237 19.8975C84.0331 19.5719 83.5741 19.4092 83.0468 19.4092C82.4934 19.4092 82.0214 19.5524 81.6307 19.8389C81.2401 20.1253 80.9602 20.5518 80.7909 21.1182Z" fill="#030229"/>
<path d="M94.1698 27.3486C92.718 27.3486 91.5038 26.8636 90.5272 25.8936C89.5507 24.9235 89.0624 23.7093 89.0624 22.251C89.0624 20.7926 89.5507 19.5752 90.5272 18.5986C91.5038 17.6221 92.718 17.1338 94.1698 17.1338C95.4003 17.1338 96.4745 17.5081 97.3925 18.2568C98.3104 19.0055 98.8345 19.943 98.9647 21.0693H96.1034C96.0057 20.7048 95.7746 20.4085 95.41 20.1807C95.052 19.9463 94.6385 19.8291 94.1698 19.8291C93.4992 19.8291 92.9393 20.0602 92.4901 20.5225C92.0474 20.9782 91.826 21.5544 91.826 22.251C91.826 22.9281 92.0474 23.4977 92.4901 23.96C92.9393 24.4222 93.4992 24.6533 94.1698 24.6533C94.6385 24.6533 95.0552 24.5296 95.4198 24.2822C95.7909 24.0348 96.0253 23.7191 96.1229 23.335H98.9843C98.9126 24.1032 98.6522 24.7965 98.203 25.415C97.7538 26.027 97.1744 26.5023 96.4647 26.8408C95.7616 27.1794 94.9966 27.3486 94.1698 27.3486Z" fill="#030229"/>
<path d="M106.816 20.0146H104.404V23.1104C104.404 23.6182 104.557 23.999 104.863 24.2529C105.176 24.5068 105.589 24.6338 106.103 24.6338C106.377 24.6338 106.614 24.6077 106.816 24.5557V27.1533C106.413 27.2575 105.96 27.3096 105.459 27.3096C104.28 27.3096 103.34 26.9417 102.637 26.2061C101.933 25.4704 101.582 24.4515 101.582 23.1494V20.0146H99.7557V17.3291H101.582V14.751H104.404V17.3291H106.816V20.0146Z" fill="#030229"/>
</svg>
