<svg width="140" height="37" viewBox="0 0 140 37" fill="none" xmlns="http://www.w3.org/2000/svg">
<path d="M44.8445 28.5172L46.5891 24.4653C48.4743 25.8722 50.9786 26.6038 53.4547 26.6038C55.2837 26.6038 56.4373 25.9003 56.4373 24.8311C56.4092 21.8485 45.4917 24.1839 45.4073 16.6992C45.3791 12.9006 48.7557 9.97428 53.5391 9.97428C56.3811 9.97428 59.223 10.6777 61.2489 12.2816L59.6169 16.4179C57.7598 15.2361 55.4525 14.3919 53.2578 14.3919C51.7664 14.3919 50.7816 15.0954 50.7816 15.9958C50.8098 18.9221 61.8117 17.3183 61.9242 24.4653C61.9242 28.3483 58.6321 31.0777 53.9049 31.0777C50.444 31.0777 47.2644 30.2617 44.8445 28.5172ZM111.785 23.0021C110.912 24.5216 109.28 25.5627 107.395 25.5627C104.609 25.5627 102.358 23.3117 102.358 20.526C102.358 17.7404 104.609 15.4893 107.395 15.4893C109.28 15.4893 110.912 16.5304 111.785 18.0499L116.596 15.3768C114.795 12.169 111.334 9.97428 107.395 9.97428C101.571 9.97428 96.8434 14.7015 96.8434 20.526C96.8434 26.3506 101.571 31.0777 107.395 31.0777C111.363 31.0777 114.795 28.9111 116.596 25.6752L111.785 23.0021V23.0021ZM64.3441 1.22339H70.3656V30.6838H64.3441V1.22339ZM118.96 1.22339V30.6838H124.981V21.8485L132.128 30.6838H139.838L130.75 20.1884L139.163 10.3964H131.791L124.981 18.5282V1.22339H118.96ZM88.2613 23.0584C87.3891 24.4935 85.5882 25.5627 83.5623 25.5627C80.7766 25.5627 78.5256 23.3117 78.5256 20.526C78.5256 17.7404 80.7766 15.4893 83.5623 15.4893C85.5882 15.4893 87.3891 16.6148 88.2613 18.078V23.0584ZM88.2613 10.3964V12.7881C87.2765 11.1279 84.8285 9.97428 82.268 9.97428C76.978 9.97428 72.8136 14.6452 72.8136 20.4979C72.8136 26.3506 76.978 31.0777 82.268 31.0777C84.8285 31.0777 87.2765 29.9241 88.2613 28.2639V30.6557H94.2829V10.3964H88.2613Z" fill="black"/>
<path d="M7.61805 23.0304C7.61805 25.0844 5.95791 26.7446 3.90384 26.7446C1.84977 26.7446 0.189636 25.0844 0.189636 23.0304C0.189636 20.9763 1.84977 19.3162 3.90384 19.3162H7.61805V23.0304ZM9.47515 23.0304C9.47515 20.9763 11.1353 19.3162 13.1894 19.3162C15.2434 19.3162 16.9036 20.9763 16.9036 23.0304V32.3159C16.9036 34.37 15.2434 36.0301 13.1894 36.0301C11.1353 36.0301 9.47515 34.37 9.47515 32.3159V23.0304Z" fill="#E01E5A"/>
<path d="M13.1895 8.11713C11.1354 8.11713 9.47527 6.457 9.47527 4.40293C9.47527 2.34886 11.1354 0.688721 13.1895 0.688721C15.2435 0.688721 16.9037 2.34886 16.9037 4.40293V8.11713H13.1895ZM13.1895 10.0024C15.2435 10.0024 16.9037 11.6625 16.9037 13.7166C16.9037 15.7706 15.2435 17.4308 13.1895 17.4308H3.87583C1.82176 17.4308 0.161621 15.7706 0.161621 13.7166C0.161621 11.6625 1.82176 10.0024 3.87583 10.0024H13.1895Z" fill="#36C5F0"/>
<path d="M28.0743 13.7166C28.0743 11.6625 29.7344 10.0024 31.7885 10.0024C33.8425 10.0024 35.5027 11.6625 35.5027 13.7166C35.5027 15.7706 33.8425 17.4308 31.7885 17.4308H28.0743V13.7166ZM26.2172 13.7166C26.2172 15.7706 24.557 17.4308 22.503 17.4308C20.4489 17.4308 18.7888 15.7706 18.7888 13.7166V4.40293C18.7888 2.34886 20.4489 0.688721 22.503 0.688721C24.557 0.688721 26.2172 2.34886 26.2172 4.40293V13.7166V13.7166Z" fill="#2EB67D"/>
<path d="M22.503 28.6017C24.557 28.6017 26.2172 30.2618 26.2172 32.3159C26.2172 34.37 24.557 36.0301 22.503 36.0301C20.4489 36.0301 18.7888 34.37 18.7888 32.3159V28.6017H22.503ZM22.503 26.7446C20.4489 26.7446 18.7888 25.0844 18.7888 23.0304C18.7888 20.9763 20.4489 19.3162 22.503 19.3162H31.8166C33.8707 19.3162 35.5308 20.9763 35.5308 23.0304C35.5308 25.0844 33.8707 26.7446 31.8166 26.7446H22.503Z" fill="#ECB22E"/>
</svg>
