<svg width="25" height="26" viewBox="0 0 25 26" fill="none" xmlns="http://www.w3.org/2000/svg">
<circle cx="12.5" cy="12.8989" r="12.5" fill="#605BFE"/>
<path fill-rule="evenodd" clip-rule="evenodd" d="M11.5 16.8989C11.5 17.4512 11.9477 17.8989 12.5 17.8989C13.0523 17.8989 13.5 17.4512 13.5 16.8989V13.8989H16.5C17.0523 13.8989 17.5 13.4512 17.5 12.8989C17.5 12.3466 17.0523 11.8989 16.5 11.8989H13.5V8.89893C13.5 8.34664 13.0523 7.89893 12.5 7.89893C11.9477 7.89893 11.5 8.34664 11.5 8.89893L11.5 11.8989H8.5C7.94772 11.8989 7.5 12.3466 7.5 12.8989C7.5 13.4512 7.94772 13.8989 8.5 13.8989H11.5L11.5 16.8989Z" fill="white"/>
</svg>
