<svg width="23" height="20" viewBox="0 0 23 20" fill="none" xmlns="http://www.w3.org/2000/svg">
<path d="M10.377 19.8239C10.3116 19.8239 10.247 19.8104 10.1871 19.7842C10.1273 19.758 10.0735 19.7197 10.0291 19.6717L0.649064 9.52522C0.586534 9.45757 0.545081 9.37317 0.529777 9.28233C0.514474 9.19149 0.525984 9.09816 0.562899 9.01376C0.599814 8.92937 0.660533 8.85756 0.737625 8.80714C0.814716 8.75671 0.904835 8.72985 0.996953 8.72985H5.51199C5.57978 8.72986 5.64678 8.74441 5.70847 8.77252C5.77016 8.80062 5.8251 8.84163 5.86959 8.89278L9.00444 12.4993C9.34323 11.7751 9.99907 10.5693 11.15 9.09991C12.8514 6.92767 16.0161 3.73299 21.4305 0.849054C21.5351 0.793325 21.6569 0.778861 21.7717 0.808519C21.8865 0.838176 21.986 0.909798 22.0505 1.00924C22.1151 1.10869 22.14 1.22873 22.1204 1.34566C22.1008 1.46258 22.038 1.5679 21.9445 1.64082C21.9239 1.65697 19.8363 3.30096 17.4337 6.3122C15.2225 9.08328 12.2831 13.6144 10.8367 19.4641C10.8113 19.5668 10.7522 19.6581 10.6689 19.7234C10.5855 19.7887 10.4827 19.8241 10.3769 19.8241L10.377 19.8239Z" fill="#5B93FF"/>
</svg>
