<svg width="29" height="25" viewBox="0 0 29 25" fill="none" xmlns="http://www.w3.org/2000/svg">
<path d="M13.2525 24.7927C13.1702 24.7927 13.0888 24.7756 13.0134 24.7427C12.938 24.7097 12.8703 24.6614 12.8144 24.601L1.0025 11.8239C0.923756 11.7387 0.871556 11.6324 0.852285 11.5181C0.833014 11.4037 0.847508 11.2861 0.893994 11.1799C0.94048 11.0736 1.01694 10.9832 1.11402 10.9197C1.2111 10.8562 1.32458 10.8223 1.44058 10.8223H7.12618C7.21155 10.8224 7.29592 10.8407 7.3736 10.8761C7.45128 10.9115 7.52047 10.9631 7.57649 11.0275L11.5241 15.5691C11.9507 14.6571 12.7766 13.1386 14.2258 11.2884C16.3684 8.55294 20.3535 4.53 27.1717 0.89838C27.3035 0.828203 27.4568 0.809989 27.6014 0.847335C27.7459 0.884682 27.8712 0.974873 27.9525 1.1001C28.0338 1.22533 28.0652 1.37649 28.0405 1.52373C28.0158 1.67097 27.9368 1.8036 27.819 1.89542C27.793 1.91576 25.1641 3.98596 22.1387 7.7779C19.3542 11.2674 15.6528 16.9733 13.8314 24.3395C13.7994 24.4689 13.725 24.5839 13.6201 24.6661C13.5151 24.7483 13.3856 24.7929 13.2523 24.7929L13.2525 24.7927Z" fill="white"/>
</svg>
