<svg width="140" height="36" viewBox="0 0 140 36" fill="none" xmlns="http://www.w3.org/2000/svg">
<path d="M45.4071 14.5532C45.4071 12.0348 42.9909 9.39353 38.7914 9.39353C34.0818 9.39353 28.9111 12.8611 28.1193 19.7822C27.3103 26.771 31.6405 29.8766 36.0053 29.8766C40.3701 29.8766 42.6556 28.1687 44.9931 25.8911C42.983 23.3569 40.3874 24.528 39.89 24.7861C39.0667 25.2449 38.1343 25.4718 37.1921 25.4425C35.5079 25.4425 33.789 24.6838 33.789 21.5263C44.5807 20.4559 45.4055 17.056 45.4055 14.5532H45.4071ZM40.0585 14.9672C39.9892 15.7432 39.6807 17.0717 34.2156 17.8162C35.3647 13.708 37.5683 13.3995 38.5804 13.3995C38.7856 13.3901 38.9903 13.425 39.1807 13.5018C39.3712 13.5786 39.5429 13.6954 39.6841 13.8445C39.8254 13.9935 39.9329 14.1712 39.9994 14.3655C40.0659 14.5597 40.0898 14.766 40.0695 14.9704L40.0585 14.9672ZM21.7807 15.6409L19.2716 23.5615L17.5008 9.80908C13.55 9.80908 11.425 12.6392 10.3169 15.6236L7.25696 23.5788L6.82725 15.7086C6.59429 12.0505 3.25417 9.82482 0.554688 9.82482L3.81925 29.7207C7.95899 29.705 10.1941 26.8906 11.3636 23.9062L13.9514 17.1425C13.975 17.418 15.7395 29.7223 15.7395 29.7223C19.8981 29.7223 22.1333 27.0826 23.3311 24.2006L29.1551 9.82639C25.0547 9.82639 22.8935 12.6392 21.7775 15.6409H21.7807ZM60.669 9.34474C58.108 9.34474 56.1515 10.7425 54.4987 12.795V12.7793L55.9752 0.821289C52.5721 0.821289 49.8049 3.78994 49.2729 8.2067L46.7135 29.5665C48.6732 29.5665 50.7525 28.9967 51.8701 27.547C52.868 28.8408 54.3618 29.8766 56.5796 29.8766C62.3186 29.8766 66.2553 23.1822 66.2553 16.9001C66.2206 11.1706 63.4535 9.36048 60.6863 9.36048L60.669 9.34474ZM60.1338 19.6122C59.5357 23.1145 57.5902 25.496 55.7186 25.496C53.8471 25.496 53.0207 24.6507 53.0207 24.6507C53.3827 21.5814 53.6063 19.6988 54.2925 18.076C54.9788 16.4531 56.6127 13.8654 58.3142 13.8654C59.9827 13.8654 60.7383 16.0911 60.1354 19.6106L60.1338 19.6122ZM80.5681 9.81065H76.5637L76.5794 9.60288C76.8549 6.98052 77.4735 5.60009 79.5135 5.375C80.9065 5.23648 81.5251 4.51242 81.6793 3.7191L82.1783 0.940917C74.1507 0.888973 71.6102 4.37233 70.9632 9.68945L70.9475 9.81065H70.8609C69.5545 9.81065 68.1126 11.295 67.8702 13.176L67.7837 13.8654H70.4658L68.215 32.5335L67.5255 35.8815C67.6121 35.8815 67.7144 35.8973 67.7994 35.8973C71.5614 35.7588 73.9697 32.7744 74.5017 28.4426L76.2583 13.8622H77.5175C78.7548 13.8622 80.1997 12.6187 80.4516 10.5489L80.5681 9.81065ZM101.396 9.46437C96.7728 9.46437 92.408 12.88 91.0701 18.2475C89.7321 23.615 91.7595 29.9631 98.5625 29.9631C105.366 29.9631 109.261 23.3522 109.261 17.8493C109.268 12.3795 105.575 9.46279 101.397 9.46279L101.396 9.46437ZM103.269 19.4375C103.03 21.871 101.962 25.5637 99.041 25.5637C96.1196 25.5637 96.5147 21.2508 96.798 19.1967C97.1081 17.0056 98.328 13.8827 100.957 13.8827C103.321 13.8827 103.543 16.6955 103.27 19.4391L103.269 19.4375ZM132.105 15.6236L129.596 23.5442C129.529 22.9224 127.827 9.79177 127.827 9.79177C123.876 9.79177 121.761 12.6219 120.653 15.6063L117.593 23.5615C117.577 22.9917 117.163 15.6913 117.163 15.6913C116.914 12.0332 113.577 9.8075 110.867 9.8075L114.114 29.7034C118.254 29.6877 120.489 26.8733 121.658 23.8889L124.237 17.1252C124.252 17.4007 126.025 29.705 126.025 29.705C130.183 29.705 132.409 27.0653 133.616 24.1832L139.445 9.80908C135.356 9.80908 133.19 12.6219 132.09 15.6236H132.105ZM84.3489 0.93777L80.9805 28.2159L80.291 31.5813C80.376 31.5813 80.4799 31.597 80.5649 31.597C84.1884 31.5451 86.7666 28.3545 87.2499 24.3328L89.1907 8.68206C89.7794 3.90169 86.9445 0.934621 84.3489 0.934621V0.93777Z" fill="#4353FF"/>
</svg>
