<svg width="162" height="31" viewBox="0 0 162 31" fill="none" xmlns="http://www.w3.org/2000/svg">
<path d="M19.3537 5.79456L10.0425 11.5537L19.3537 17.3129L10.0425 23.072L0.731323 17.2817L10.0425 11.5226L0.731323 5.79456L10.0425 0.0354004L19.3537 5.79456ZM9.99434 24.9243L19.3055 19.1651L28.6167 24.9243L19.3055 30.6835L9.99434 24.9243ZM19.3537 17.2817L28.6648 11.5226L19.3537 5.79456L28.6167 0.0354004L37.9279 5.79456L28.6167 11.5537L37.9279 17.3129L28.6167 23.072L19.3537 17.2817Z" fill="#0061FF"/>
<path d="M45.2322 5.79469H52.7614C57.5615 5.79469 61.5268 8.48748 61.5268 14.6358V15.9277C61.5268 22.1227 57.8184 24.9089 52.9059 24.9089H45.2322V5.79469ZM49.4383 9.26575V21.4222H52.6651C55.3943 21.4222 57.2244 19.6945 57.2244 15.8499V14.8381C57.2244 10.9935 55.2979 9.26575 52.5206 9.26575H49.4383V9.26575ZM63.7583 9.45253H67.1295L67.6754 13.0481C68.3175 10.6044 69.955 9.29688 72.925 9.29688H73.9684V13.4217H72.2346C68.8152 13.4217 67.9804 14.5735 67.9804 17.8422V24.9556H63.8225V9.45253H63.7583ZM74.8032 17.5154V17.0795C74.8032 11.8963 78.2227 9.0634 82.8783 9.0634C87.6302 9.0634 90.9533 11.8963 90.9533 17.0795V17.5154C90.9533 22.6052 87.7265 25.3447 82.8783 25.3447C77.725 25.298 74.8032 22.6208 74.8032 17.5154ZM86.6991 17.4687V17.0795C86.6991 14.1999 85.2061 12.4722 82.8301 12.4722C80.5023 12.4722 78.9612 14.0599 78.9612 17.0795V17.4687C78.9612 20.2548 80.4542 21.8425 82.8301 21.8425C85.2061 21.7958 86.6991 20.2548 86.6991 17.4687ZM93.1366 9.45253H96.6042L97.0056 12.3788C97.8404 10.4176 99.6223 9.0634 102.255 9.0634C106.317 9.0634 108.998 11.8963 108.998 17.1418V17.5776C108.998 22.6675 106.028 25.3603 102.255 25.3603C99.7347 25.3603 98.0009 24.2551 97.15 22.4807V30.31H93.0885L93.1366 9.45253ZM104.776 17.4687V17.1262C104.776 14.0443 103.138 12.5189 100.955 12.5189C98.627 12.5189 97.0858 14.2466 97.0858 17.1262V17.422C97.0858 20.1615 98.5788 21.8892 100.907 21.8892C103.299 21.8425 104.776 20.3638 104.776 17.4687ZM115.146 22.0915L114.793 24.9244H111.229V4.26929H115.291V12.192C116.19 10.1685 117.972 9.0634 120.492 9.0634C124.313 9.11009 127.138 11.6628 127.138 16.7993V17.2819C127.138 22.4184 124.457 25.3603 120.396 25.3603C117.715 25.298 115.981 24.0995 115.146 22.0915ZM122.868 17.2819V16.8927C122.868 14.0599 121.279 12.4722 119.047 12.4722C116.768 12.4722 115.178 14.2466 115.178 16.9394V17.2819C115.178 20.1615 116.72 21.8425 118.999 21.8425C121.439 21.8425 122.868 20.3638 122.868 17.2819ZM128.92 17.5154V17.0795C128.92 11.8963 132.34 9.0634 136.995 9.0634C141.747 9.0634 145.07 11.8963 145.07 17.0795V17.5154C145.07 22.6052 141.796 25.3447 136.995 25.3447C131.842 25.298 128.92 22.6208 128.92 17.5154ZM140.848 17.4687V17.0795C140.848 14.1999 139.355 12.4722 136.979 12.4722C134.652 12.4722 133.11 14.0599 133.11 17.0795V17.4687C133.11 20.2548 134.603 21.8425 136.979 21.8425C139.371 21.7958 140.848 20.2548 140.848 17.4687ZM150.513 16.8927L144.91 9.45253H149.71L152.937 14.1066L156.212 9.45253H160.964L155.281 16.846L161.269 24.9244H156.565L152.905 19.7879L149.341 24.9244H144.428L150.513 16.8927Z" fill="black"/>
</svg>
