<svg width="150" height="27" viewBox="0 0 150 27" fill="none" xmlns="http://www.w3.org/2000/svg">
<path d="M30.8474 7.53014C25.437 7.53014 21.2504 11.5879 21.2504 17.0627C21.2504 22.5375 25.3726 26.5953 30.8474 26.5953C36.3222 26.5953 40.5089 22.4731 40.5089 17.0627C40.5089 11.6523 36.3866 7.53014 30.8474 7.53014ZM30.9118 22.602C27.8202 22.602 25.6303 20.2188 25.6303 16.9983C25.6303 13.7779 27.8202 11.3947 30.9118 11.3947C34.0035 11.3947 36.2578 13.7779 36.2578 16.9983C36.2578 20.2188 33.9391 22.602 30.9118 22.602ZM41.6682 11.6523H44.309V26.2089H48.6244V7.85218H41.6682V11.6523ZM10.494 11.4591C12.7484 11.4591 14.5518 12.8117 15.1959 14.8728H19.7046C18.8673 10.493 15.2603 7.46573 10.494 7.46573C5.14804 7.53014 0.961426 11.5879 0.961426 17.0627C0.961426 22.5375 5.08363 26.5953 10.5584 26.5953C15.1959 26.5953 18.8673 23.6325 19.7046 19.1883H15.1959C14.5518 21.2494 12.7484 22.6664 10.5584 22.6664C7.46678 22.6664 5.27686 20.2832 5.27686 17.0627C5.27686 13.8423 7.40237 11.4591 10.494 11.4591ZM122.889 15.2593L119.733 14.8084C118.251 14.6152 117.156 14.0999 117.156 12.9405C117.156 11.6523 118.573 11.0082 120.441 11.0082C122.502 11.0082 123.855 11.91 124.112 13.327H128.235C127.784 9.65565 124.95 7.46573 120.57 7.46573C116.061 7.46573 113.034 9.78447 113.034 13.0694C113.034 16.161 114.966 18.0289 118.96 18.5442L122.116 18.995C123.661 19.1883 124.499 19.8323 124.499 20.9273C124.499 22.4087 123.017 22.9884 120.956 22.9884C118.444 22.9884 117.027 21.9579 116.77 20.412H112.583C112.97 24.019 115.804 26.5309 120.892 26.5309C125.529 26.5309 128.685 24.4054 128.685 20.7341C128.685 17.5136 126.431 15.839 122.889 15.2593ZM46.4989 0.316275C44.9531 0.316275 43.7293 1.47565 43.7293 3.02147C43.7293 4.5673 44.8887 5.72667 46.4989 5.72667C48.0448 5.72667 49.2685 4.5673 49.2685 3.02147C49.2685 1.47565 48.0448 0.316275 46.4989 0.316275ZM109.234 14.1643C109.234 10.1709 106.786 7.53014 101.698 7.53014C96.8671 7.53014 94.1619 9.9777 93.5823 13.7134H97.8333C98.0265 12.232 99.1859 11.0727 101.633 11.0727C103.823 11.0727 104.854 12.0388 104.854 13.1982C104.854 14.744 102.922 15.1305 100.474 15.3881C97.1892 15.7746 93.1314 16.8695 93.1314 21.1205C93.1314 24.4054 95.579 26.5309 99.5079 26.5309C102.6 26.5309 104.467 25.2427 105.434 23.246C105.562 25.0495 106.915 26.2089 108.847 26.2089H111.359V22.4087H109.234V14.1643ZM104.983 18.7374C104.983 21.1849 102.857 22.9884 100.216 22.9884C98.6062 22.9884 97.2536 22.3443 97.2536 20.8629C97.2536 19.0594 99.4435 18.5442 101.44 18.3509C103.373 18.1577 104.403 17.7712 104.983 16.9339V18.7374ZM82.3106 7.53014C79.9275 7.53014 77.9308 8.49628 76.5137 10.1709V0.123047H72.2627V26.2089H76.4493V23.8257C77.8663 25.5648 79.9275 26.5953 82.3106 26.5953C87.4634 26.5953 91.3279 22.5375 91.3279 17.0627C91.3279 11.5879 87.399 7.53014 82.3106 7.53014ZM81.6665 22.602C78.5749 22.602 76.3849 20.2188 76.3849 16.9983C76.3849 13.7779 78.6393 11.3947 81.7309 11.3947C84.8226 11.3947 87.0125 13.7779 87.0125 16.9983C87.0125 20.2832 84.7582 22.602 81.6665 22.602ZM62.0216 7.53014C59.252 7.53014 57.4485 8.68951 56.3536 10.2353V7.85218H52.1026V26.2089H56.3536V16.2254C56.3536 13.3914 58.157 11.4591 60.7978 11.4591C63.2454 11.4591 64.7912 13.1982 64.7912 15.7101V26.2089H69.0422V15.3881C69.0422 10.7506 66.6591 7.53014 62.0216 7.53014ZM149.039 16.4831C149.039 11.2015 145.174 7.53014 140.021 7.53014C134.547 7.53014 130.489 11.6523 130.489 17.0627C130.489 22.7952 134.804 26.5953 140.086 26.5953C144.53 26.5953 148.008 23.9546 148.91 20.2188H144.466C143.822 21.829 142.276 22.7952 140.15 22.7952C137.381 22.7952 135.32 21.1205 134.869 18.0933H149.039V16.4831ZM135.126 15.066C135.835 12.4897 137.703 11.2659 139.957 11.2659C142.405 11.2659 144.208 12.6185 144.659 15.066H135.126Z" fill="#0052FF"/>
</svg>
