<svg width="144" height="46" viewBox="0 0 144 46" fill="none" xmlns="http://www.w3.org/2000/svg">
<path d="M75.8757 12.2299C75.8757 13.8424 74.5763 15.1409 72.9638 15.1409C71.3512 15.1409 70.0528 13.8424 70.0528 12.2299C70.0528 10.6174 71.307 9.3189 72.9638 9.3189C74.622 9.36365 75.8757 10.6625 75.8757 12.2299ZM63.872 18.0975V18.8143C63.872 18.8143 62.4841 17.0219 59.5279 17.0219C54.6464 17.0219 50.8388 20.7396 50.8388 25.8899C50.8388 30.996 54.6017 34.758 59.5279 34.758C62.5288 34.758 63.872 32.9218 63.872 32.9218V33.6828C63.872 34.0412 64.1414 34.3092 64.4993 34.3092H68.1266V17.4684H64.4993C64.1414 17.4697 63.872 17.7838 63.872 18.0975ZM63.872 28.8909C63.2009 29.8765 61.8568 30.7276 60.2447 30.7276C57.3784 30.7276 55.1834 28.936 55.1834 25.8899C55.1834 22.8443 57.3784 21.0528 60.2447 21.0528C61.8125 21.0528 63.2456 21.9485 63.872 22.889V28.8909ZM70.8143 17.4697H75.1137V34.3106H70.8143V17.4697ZM135.041 17.0214C132.085 17.0214 130.696 18.8138 130.696 18.8138V9.36365H126.396V34.3106H130.025C130.383 34.3106 130.651 33.9969 130.651 33.6833V32.9222C130.651 32.9222 132.04 34.7585 134.995 34.7585C139.877 34.7585 143.684 30.9973 143.684 25.8913C143.684 20.7852 139.877 17.0214 135.041 17.0214ZM134.324 30.6824C132.666 30.6824 131.368 29.8322 130.696 28.8461V22.8443C131.368 21.9485 132.801 21.008 134.324 21.008C137.19 21.008 139.385 22.7995 139.385 25.8452C139.385 28.8908 137.191 30.6824 134.324 30.6824ZM124.157 24.323V34.3553H119.857V24.8152C119.857 22.0389 118.961 20.9185 116.544 20.9185C115.246 20.9185 113.902 21.5906 113.049 22.5763V34.311H108.751V17.4702H112.154C112.512 17.4702 112.781 17.7838 112.781 18.0975V18.8143C114.035 17.5149 115.692 17.0219 117.349 17.0219C119.23 17.0219 120.798 17.5601 122.052 18.6349C123.574 19.889 124.157 21.5011 124.157 24.323ZM98.3139 17.0214C95.3586 17.0214 93.9698 18.8138 93.9698 18.8138V9.36365H89.6704V34.3106H93.2977C93.6561 34.3106 93.925 33.9969 93.925 33.6833V32.9222C93.925 32.9222 95.3138 34.7585 98.2691 34.7585C103.151 34.7585 106.958 30.9973 106.958 25.8913C107.003 20.7848 103.196 17.0214 98.3139 17.0214ZM97.5971 30.6824C95.9402 30.6824 94.6418 29.8322 93.9698 28.8461V22.8443C94.6418 21.9485 96.0749 21.008 97.5971 21.008C100.464 21.008 102.658 22.7995 102.658 25.8452C102.658 28.8908 100.464 30.6824 97.5971 30.6824ZM85.9527 17.0214C87.2511 17.0214 87.9232 17.246 87.9232 17.246V21.2317C87.9232 21.2317 84.3402 20.0223 82.1012 22.5758V34.3549H77.801V17.4697H81.4292C81.7876 17.4697 82.0556 17.7834 82.0556 18.097V18.8138C82.8627 17.8729 84.6095 17.0214 85.9527 17.0214ZM41.2996 32.7875C41.0759 32.2502 40.8517 31.6681 40.628 31.175C40.2692 30.3692 39.9108 29.6072 39.598 28.8909L39.5533 28.8461C36.4624 22.1275 33.1487 15.3203 29.6548 8.60258L29.5205 8.33321C29.1531 7.63633 28.7949 6.93455 28.4463 6.22806C27.9979 5.42134 27.5505 4.57122 26.8337 3.7645C25.4006 1.97299 23.3402 0.987305 21.146 0.987305C18.9062 0.987305 16.8909 1.973 15.4135 3.67458C14.7415 4.4804 14.2484 5.33142 13.801 6.13813C13.4514 6.84418 13.0933 7.54595 12.7267 8.24329L12.592 8.51263C9.14323 15.2304 5.78437 22.038 2.69397 28.7562L2.64878 28.8452C2.33558 29.5629 1.97674 30.324 1.61835 31.1293C1.39463 31.6224 1.17092 32.1598 0.947202 32.7419C0.364648 34.3987 0.185219 35.9665 0.409829 37.5795C0.90245 40.9388 3.14139 43.7594 6.23224 45.0145C7.3969 45.5075 8.60631 45.7312 9.86 45.7312C10.2184 45.7312 10.6658 45.6865 11.0247 45.6413C12.503 45.4623 14.0256 44.9701 15.5039 44.1191C17.3402 43.0887 19.0869 41.6113 21.0574 39.4614C23.0279 41.6113 24.8194 43.0887 26.6109 44.1191C28.0897 44.9701 29.6118 45.4623 31.0897 45.6413C31.4481 45.6869 31.8964 45.7312 32.2548 45.7312C33.5089 45.7312 34.7626 45.5075 35.8821 45.0145C39.0177 43.7594 41.2119 40.8941 41.705 37.5795C42.0607 36.0122 41.8817 34.4453 41.2996 32.7875ZM21.1008 35.1164C18.682 32.0707 17.1142 29.2045 16.5773 26.7866C16.3536 25.7562 16.3084 24.8604 16.4431 24.0541C16.5321 23.3373 16.8014 22.71 17.1598 22.1727C18.0108 20.9642 19.444 20.2022 21.1013 20.2022C22.759 20.2022 24.2368 20.919 25.0431 22.1727C25.4015 22.71 25.67 23.3378 25.7603 24.0541C25.8941 24.8608 25.8494 25.8009 25.6257 26.7866C25.0865 29.1598 23.5187 32.0264 21.1008 35.1164ZM38.9703 37.2216C38.6571 39.5504 37.0893 41.5665 34.8951 42.4623C33.8203 42.9097 32.6552 43.0444 31.4915 42.9097C30.372 42.775 29.2516 42.4167 28.0879 41.7455C26.4753 40.8489 24.8632 39.4614 22.9818 37.4005C25.9375 33.7732 27.729 30.4582 28.4011 27.5029C28.7147 26.1141 28.7599 24.8604 28.6248 23.6953C28.4463 22.5758 28.0427 21.5454 27.4158 20.6496C26.0266 18.6335 23.6972 17.4697 21.1004 17.4697C18.5035 17.4697 16.1741 18.6791 14.7858 20.6496C14.1589 21.5454 13.7553 22.5758 13.5764 23.6953C13.3974 24.8604 13.4417 26.1588 13.8001 27.5029C14.4717 30.4582 16.3079 33.8175 19.2189 37.4453C17.3827 39.5057 15.7254 40.8945 14.1128 41.7903C12.9482 42.4623 11.8292 42.8207 10.7097 42.9545C9.50073 43.0892 8.33562 42.9097 7.30563 42.5071C5.11143 41.6113 3.54364 39.5952 3.23044 37.2663C3.09621 36.1468 3.18525 35.0274 3.63357 33.7732C3.76735 33.3249 3.99196 32.8775 4.21568 32.3401C4.52933 31.6233 4.88682 30.8613 5.24566 30.1003L5.29086 30.0112C8.38081 23.3373 11.6949 16.5297 15.1437 9.90146L15.2779 9.63211C15.6368 8.96097 15.9952 8.24418 16.3531 7.57214C16.7115 6.85536 17.1142 6.18331 17.6073 5.60076C18.5478 4.52693 19.8015 3.94392 21.1903 3.94392C22.5791 3.94392 23.8328 4.52693 24.7733 5.60076C25.2664 6.18466 25.6691 6.8567 26.0275 7.57214C26.3863 8.24418 26.7447 8.96097 27.1022 9.63211L27.2369 9.90146C30.6331 16.5572 33.9032 23.2766 37.0454 30.056V30.1007C37.4043 30.8184 37.7175 31.6238 38.0759 32.3414C38.2996 32.8779 38.5237 33.3253 38.658 33.7737C39.0155 34.937 39.1497 36.0574 38.9703 37.2216Z" fill="#FF5A5F"/>
</svg>
