<svg width="22" height="20" viewBox="0 0 22 20" fill="none" xmlns="http://www.w3.org/2000/svg">
<path d="M0.638351 3.5893C0.469858 3.26082 0.49822 2.88845 0.645777 2.57933C0.604198 2.22759 0.696266 1.87046 1.02919 1.59653C1.33916 1.34156 1.64907 1.08645 1.95883 0.831429C2.50356 0.383219 3.35652 0.241751 3.88636 0.831429C6.29293 3.50946 8.80955 6.07116 11.4184 8.53961C13.358 6.72771 15.3212 4.94041 17.2703 3.15079C17.9544 2.5225 18.9446 2.71966 19.3749 3.46813C20.0018 3.77927 20.51 4.18492 20.9302 4.87725C21.1303 5.20711 21.1147 5.6235 20.9302 5.95454C19.6719 8.2106 17.2397 10.1942 15.24 12.0196C15.5076 12.2591 15.7732 12.5009 16.0462 12.7354C18.7404 15.049 20.5577 16.517 17.1861 18.8893C17.1406 18.9213 17.0942 18.9142 17.048 18.933C16.9834 18.9628 16.9214 18.9837 16.8498 18.9955C16.8275 18.9964 16.8068 19.0001 16.7848 18.9984C16.7154 19.004 16.6475 19.0217 16.5772 19.0079C14.7645 18.6525 13.0788 17.232 11.5493 15.6677C10.0594 17.1363 8.47291 18.5393 6.72837 19.3718C6.31303 19.57 5.81785 19.4545 5.49808 19.1772C4.96191 19.2177 4.47307 18.8845 4.2277 18.4057C4.19137 18.3832 4.16796 18.3704 4.1286 18.3458C3.3491 17.8588 3.27787 16.889 3.85468 16.2205C5.15714 14.7112 6.54167 13.2764 7.95307 11.8671C5.41176 9.38396 2.23855 6.70588 0.638351 3.5893Z" fill="#AEAEAE"/>
</svg>
