<svg width="36" height="36" viewBox="0 0 36 36" fill="none" xmlns="http://www.w3.org/2000/svg">
<path d="M9.15162 10.0725L6.12405 10.3064C5.2816 10.3715 4.5313 10.8131 4.0654 11.5178L0.573778 16.7986C0.220432 17.3331 0.164259 18.0019 0.423416 18.5878C0.682642 19.1737 1.21536 19.5819 1.8484 19.68L4.6205 20.1093C5.26898 16.668 6.82133 13.2352 9.15162 10.0725Z" fill="white"/>
<path d="M15.7342 31.223L16.1636 33.9951C16.2617 34.6281 16.6699 35.1608 17.2558 35.42C17.4995 35.5278 17.7575 35.581 18.0142 35.581C18.3748 35.581 18.7328 35.476 19.0449 35.2696L24.326 31.7781C25.0307 31.3121 25.4722 30.5617 25.5372 29.7194L25.7711 26.6918C22.6084 29.0222 19.1756 30.5745 15.7342 31.223Z" fill="white"/>
<path d="M14.6916 29.3016C14.7879 29.3016 14.8846 29.2937 14.9812 29.2775C16.423 29.0365 17.8126 28.6304 19.1382 28.0988L7.74475 16.7053C7.2132 18.0309 6.80709 19.4205 6.56602 20.8623C6.47101 21.4307 6.66164 22.0097 7.06905 22.4172L13.4264 28.7745C13.7647 29.1127 14.2212 29.3016 14.6916 29.3016Z" fill="white"/>
<path d="M32.4218 16.1289C35.2099 10.7387 35.3131 5.04256 35.1674 2.37114C35.1175 1.45579 34.3877 0.726031 33.4723 0.676138C33.0374 0.652385 32.5218 0.635254 31.9408 0.635254C28.9536 0.635254 24.227 1.0877 19.7146 3.42176C16.1284 5.27667 11.426 9.361 8.65161 14.7286C8.68437 14.7542 8.71638 14.7813 8.74655 14.8115L21.0321 27.0971C21.0623 27.1272 21.0894 27.1592 21.115 27.1919C26.4825 24.4175 30.5669 19.7151 32.4218 16.1289ZM20.5812 8.02297C22.577 6.02718 25.8246 6.02698 27.8205 8.02297C28.7874 8.98978 29.3198 10.2753 29.3198 11.6426C29.3198 13.01 28.7874 14.2955 27.8205 15.2623C26.8227 16.2601 25.5116 16.7591 24.2009 16.7592C22.8898 16.7593 21.5793 16.2604 20.5812 15.2623C19.6144 14.2955 19.0818 13.01 19.0818 11.6426C19.0818 10.2753 19.6144 8.98978 20.5812 8.02297Z" fill="white"/>
<path d="M22.0291 13.8144C23.2266 15.0119 25.1753 15.012 26.3728 13.8144C26.9529 13.2342 27.2723 12.463 27.2723 11.6425C27.2723 10.8221 26.9529 10.0509 26.3728 9.47078C25.774 8.87199 24.9875 8.57263 24.2009 8.57263C23.4144 8.57263 22.6279 8.87199 22.0292 9.47078C21.4491 10.0509 21.1295 10.8221 21.1295 11.6425C21.1295 12.463 21.449 13.2343 22.0291 13.8144Z" fill="white"/>
<path d="M1.30707 29.4339C1.5691 29.4339 1.83112 29.3339 2.03097 29.134L5.37356 25.7914C5.77339 25.3915 5.77339 24.7433 5.37356 24.3435C4.9738 23.9437 4.32552 23.9437 3.92569 24.3435L0.583106 27.6861C0.183276 28.0859 0.183276 28.7341 0.583106 29.134C0.783021 29.3339 1.04505 29.4339 1.30707 29.4339Z" fill="white"/>
<path d="M8.43682 27.4068C8.03706 27.007 7.38879 27.007 6.98896 27.4068L0.562537 33.8332C0.162707 34.2331 0.162707 34.8813 0.562537 35.2811C0.762452 35.481 1.02448 35.5809 1.2865 35.5809C1.54853 35.5809 1.81056 35.481 2.0104 35.281L8.43676 28.8547C8.83665 28.4548 8.83665 27.8066 8.43682 27.4068Z" fill="white"/>
<path d="M10.0521 30.47L6.7096 33.8126C6.30977 34.2125 6.30977 34.8607 6.7096 35.2605C6.90952 35.4604 7.17154 35.5604 7.4335 35.5604C7.69546 35.5604 7.95755 35.4605 8.1574 35.2605L11.5 31.9179C11.8998 31.5181 11.8998 30.8699 11.5 30.47C11.1002 30.0702 10.4519 30.0702 10.0521 30.47Z" fill="white"/>
</svg>
