<svg width="48" height="43" viewBox="0 0 48 43" fill="none" xmlns="http://www.w3.org/2000/svg">
<path d="M3.77055 7.82685L13.0057 13.9836L22.2101 1.09838C22.4135 0.813346 22.6819 0.580994 22.9933 0.420698C23.3047 0.260402 23.6497 0.176758 23.9999 0.176758C24.3502 0.176758 24.6952 0.260402 25.0066 0.420698C25.3179 0.580994 25.5864 0.813346 25.7898 1.09838L34.9942 13.9836L44.2293 7.82685C44.5789 7.5943 44.9877 7.46668 45.4072 7.45905C45.827 7.45142 46.2402 7.56411 46.5979 7.7838C46.9557 8.00346 47.243 8.32097 47.426 8.69876C47.6092 9.07654 47.6802 9.49885 47.6309 9.91575L44.0182 40.627C43.9551 41.162 43.6981 41.655 43.2957 42.0129C42.8931 42.3707 42.3733 42.5686 41.8348 42.5686H6.16509C5.62653 42.5686 5.1067 42.3707 4.70425 42.0129C4.30177 41.655 4.04466 41.162 3.98164 40.627L0.368937 9.91355C0.320122 9.49683 0.391563 9.07485 0.574792 8.69739C0.758044 8.31996 1.04543 8.00282 1.40308 7.78344C1.76072 7.56404 2.17366 7.45155 2.59316 7.45925C3.01265 7.46694 3.4212 7.5945 3.77055 7.82685ZM23.9999 29.3755C25.1662 29.3755 26.2847 28.9122 27.1095 28.0874C27.9343 27.2626 28.3976 26.1441 28.3976 24.9778C28.3976 23.8116 27.9343 22.693 27.1095 21.8682C26.2847 21.0434 25.1662 20.5801 23.9999 20.5801C22.8337 20.5801 21.7151 21.0434 20.8903 21.8682C20.0655 22.693 19.6022 23.8116 19.6022 24.9778C19.6022 26.1441 20.0655 27.2626 20.8903 28.0874C21.7151 28.9122 22.8337 29.3755 23.9999 29.3755Z" fill="#605BFE"/>
</svg>
