<svg width="37" height="38" viewBox="0 0 37 38" fill="none" xmlns="http://www.w3.org/2000/svg">
<path d="M18.2645 11.0812C21.1887 11.0812 23.5593 8.71068 23.5593 5.78646C23.5593 2.86225 21.1887 0.491699 18.2645 0.491699C15.3403 0.491699 12.9698 2.86225 12.9698 5.78646C12.9698 8.71068 15.3403 11.0812 18.2645 11.0812Z" fill="#D3D3D3"/>
<path d="M17.5721 11.4128L17.3568 12.7859C17.3552 12.9806 17.4076 13.172 17.5081 13.3387C18.0154 13.4376 18.5369 13.4376 19.0442 13.3387C19.1447 13.172 19.1971 12.9806 19.1955 12.7859L18.9744 11.407C18.7397 11.4449 18.5022 11.4624 18.2645 11.4593C18.0329 11.4616 17.8014 11.4461 17.5721 11.4128Z" fill="#D3D3D3"/>
<path d="M8.70486 23.9808H11.8643V17.5805H12.2425V23.9808H24.3157V17.5805H24.6939V23.9808H27.8242C28.1942 23.9808 28.5495 23.8359 28.8138 23.577C29.0781 23.3181 29.2305 22.9659 29.2381 22.596V15.3229C29.235 13.954 28.6919 12.6415 27.7266 11.6708C26.7613 10.7 25.4519 10.1495 24.083 10.1387H22.5003C22.1338 10.1404 21.7764 10.2541 21.4763 10.4646C21.3563 10.5525 21.2435 10.6498 21.1388 10.7555C20.968 10.9511 20.8416 11.1813 20.7683 11.4304C20.695 11.6795 20.6765 11.9415 20.7141 12.1985C20.877 13.269 20.9876 14.3105 21.0516 15.3229C21.0516 15.8117 21.0865 16.8648 21.0865 16.8648C21.0872 17.4243 20.9217 17.9713 20.6109 18.4365C20.3001 18.9016 19.8581 19.2639 19.3409 19.4773L18.9802 14.1127C18.9802 14.1127 18.4856 14.1709 18.282 14.1709C18.0783 14.1709 17.6187 14.1185 17.5954 14.1185L17.2347 19.4773C16.7171 19.2646 16.2746 18.9024 15.9637 18.4371C15.6528 17.9718 15.4876 17.4244 15.4891 16.8648C15.4891 16.8648 15.4891 15.8117 15.5241 15.3229C15.5861 14.3183 15.6967 13.2826 15.8557 12.2159C15.8927 11.945 15.8669 11.6691 15.7801 11.4098C15.6933 11.1505 15.548 10.9147 15.3553 10.7206C15.2553 10.626 15.1504 10.5366 15.0411 10.4529C14.7387 10.2486 14.3821 10.1392 14.0171 10.1387H12.4752C11.1003 10.1387 9.78163 10.6849 8.80941 11.6572C7.83718 12.6294 7.29099 13.948 7.29099 15.3229V22.596C7.2986 22.9659 7.45091 23.3181 7.71525 23.577C7.97958 23.8359 8.33486 23.9808 8.70486 23.9808Z" fill="#D3D3D3"/>
<path d="M24.7055 28.8275C24.6381 28.6207 24.514 28.4369 24.3474 28.2971C24.1808 28.1572 23.9783 28.0668 23.7629 28.0362L20.685 27.5882L19.306 24.7954C19.2095 24.6017 19.0609 24.4388 18.8769 24.3249C18.693 24.2111 18.4809 24.1508 18.2645 24.1508C18.0482 24.1508 17.8361 24.2111 17.6521 24.3249C17.4681 24.4388 17.3195 24.6017 17.223 24.7954L15.8441 27.5882L12.7661 28.0362C12.5513 28.0674 12.3495 28.1581 12.1836 28.2979C12.0176 28.4378 11.894 28.6212 11.8268 28.8276C11.7597 29.034 11.7515 29.2551 11.8034 29.4658C11.8552 29.6766 11.965 29.8686 12.1203 30.0203L14.3487 32.1906L13.8192 35.2627C13.783 35.477 13.8075 35.6971 13.8899 35.8982C13.9723 36.0993 14.1094 36.2733 14.2857 36.4004C14.4619 36.5276 14.6702 36.6029 14.887 36.6178C15.1038 36.6326 15.3205 36.5865 15.5124 36.4846L18.2645 35.0416L21.0166 36.4846C21.1852 36.5733 21.373 36.6192 21.5636 36.6184C21.8081 36.618 22.0463 36.5407 22.2443 36.3973C22.4198 36.2703 22.5564 36.0967 22.6386 35.8963C22.7209 35.6958 22.7455 35.4764 22.7098 35.2627L22.1803 32.1906L24.4088 30.0203C24.5646 29.869 24.675 29.6771 24.7275 29.4663C24.7799 29.2555 24.7723 29.0342 24.7055 28.8275ZM20.1206 30.9513C19.985 31.0827 19.8834 31.2451 19.8247 31.4245C19.7659 31.6039 19.7516 31.795 19.7831 31.9811L20.0159 33.331L18.8056 32.6968C18.6387 32.6091 18.453 32.5633 18.2645 32.5633C18.076 32.5633 17.8903 32.6091 17.7234 32.6968L16.519 33.331L16.7517 31.9811C16.7832 31.795 16.769 31.6039 16.7102 31.4245C16.6514 31.2451 16.5498 31.0827 16.4143 30.9513L15.4368 30.0029L16.7925 29.805C16.9789 29.777 17.1557 29.7041 17.3078 29.5926C17.4598 29.4812 17.5825 29.3344 17.6652 29.165L18.2471 27.9431L18.8289 29.165C18.9117 29.3344 19.0343 29.4812 19.1864 29.5926C19.3384 29.7041 19.5152 29.777 19.7017 29.805L21.0574 30.0029L20.1206 30.9513Z" fill="#D3D3D3"/>
<path d="M25.5259 29.7816C25.3116 29.8137 25.1105 29.905 24.9453 30.0452C24.7801 30.1854 24.6573 30.369 24.5907 30.5752C24.5242 30.7815 24.5166 31.0022 24.5687 31.2125C24.6209 31.4229 24.7307 31.6144 24.8859 31.7657L26.8409 33.6509L26.3754 36.339C26.3339 36.5572 26.3556 36.7827 26.4381 36.9889C26.5206 37.1951 26.6603 37.3734 26.8409 37.5027C27.0169 37.6305 27.2252 37.7065 27.4422 37.7219C27.6592 37.7373 27.8762 37.6916 28.0686 37.59L30.4832 36.3215L32.8979 37.59C33.0654 37.6759 33.2507 37.7217 33.439 37.7238C33.6855 37.7247 33.9259 37.6472 34.1255 37.5027C34.3061 37.3734 34.4458 37.1951 34.5283 36.9889C34.6108 36.7827 34.6326 36.5572 34.591 36.339L34.1255 33.6509L36.0805 31.7424C36.2357 31.5912 36.3455 31.3996 36.3977 31.1892C36.4498 30.9789 36.4422 30.7582 36.3757 30.552C36.3092 30.3457 36.1864 30.1622 36.0211 30.022C35.8559 29.8817 35.6548 29.7905 35.4405 29.7584L32.7349 29.3627L31.5247 26.9132C31.4282 26.7195 31.2796 26.5566 31.0956 26.4427C30.9117 26.3289 30.6996 26.2686 30.4832 26.2686C30.2668 26.2686 30.0548 26.3289 29.8708 26.4427C29.6868 26.5566 29.5382 26.7195 29.4417 26.9132L28.2315 29.3627L25.5259 29.7816ZM30.0468 30.9453L30.4832 30.0842L30.9196 30.9686C31.0031 31.1369 31.1261 31.2825 31.278 31.393C31.43 31.5034 31.6065 31.5754 31.7924 31.6028L32.7699 31.7424L32.0658 32.4348C31.9302 32.5662 31.8287 32.7287 31.7699 32.9081C31.7111 33.0875 31.6968 33.2785 31.7284 33.4647L31.8971 34.4306L31.0243 33.9767C30.8574 33.8891 30.6717 33.8433 30.4832 33.8433C30.2947 33.8433 30.109 33.8891 29.9421 33.9767L29.0693 34.4306L29.2381 33.4647C29.2696 33.2785 29.2553 33.0875 29.1965 32.9081C29.1377 32.7287 29.0362 32.5662 28.9006 32.4348L28.1966 31.7424L29.1741 31.6028C29.3599 31.5754 29.5364 31.5034 29.6884 31.393C29.8404 31.2825 29.9634 31.1369 30.0468 30.9686V30.9453Z" fill="#D3D3D3"/>
<path d="M2.4035 33.6509L1.93803 36.339C1.89649 36.5572 1.91824 36.7827 2.00072 36.9889C2.0832 37.1951 2.22296 37.3734 2.4035 37.5027C2.57952 37.6305 2.78786 37.7065 3.00486 37.7219C3.22187 37.7373 3.43885 37.6916 3.63119 37.59L6.04584 36.3215L8.46048 37.59C8.62806 37.6759 8.81329 37.7217 9.00159 37.7238C9.24809 37.7247 9.4885 37.6472 9.68817 37.5027C9.86871 37.3734 10.0085 37.1951 10.091 36.9889C10.1734 36.7827 10.1952 36.5572 10.1536 36.339L9.68817 33.6509L11.6432 31.7424C11.7983 31.5912 11.9082 31.3996 11.9603 31.1892C12.0125 30.9789 12.0048 30.7582 11.9383 30.552C11.8718 30.3457 11.749 30.1622 11.5838 30.022C11.4185 29.8817 11.2174 29.7905 11.0031 29.7584L8.29756 29.3627L7.08733 26.9132C6.99082 26.7195 6.84223 26.5566 6.65825 26.4427C6.47428 26.3289 6.2622 26.2686 6.04584 26.2686C5.82947 26.2686 5.61739 26.3289 5.43341 26.4427C5.24944 26.5566 5.10085 26.7195 5.00434 26.9132L3.79411 29.386L1.08854 29.7816C0.874228 29.8137 0.673134 29.905 0.507909 30.0452C0.342684 30.1854 0.219891 30.369 0.153364 30.5752C0.0868365 30.7815 0.0792168 31.0022 0.131363 31.2125C0.18351 31.4229 0.29335 31.6144 0.448513 31.7657L2.4035 33.6509ZM4.73087 31.5795C4.91674 31.5521 5.0932 31.4801 5.24519 31.3697C5.39718 31.2592 5.52016 31.1136 5.60363 30.9453L6.04584 30.0842L6.48222 30.9686C6.56569 31.1369 6.68868 31.2825 6.84066 31.393C6.99265 31.5034 7.16911 31.5754 7.35498 31.6028L8.33247 31.7424L7.62845 32.4348C7.49287 32.5662 7.3913 32.7287 7.33251 32.9081C7.27371 33.0875 7.25946 33.2785 7.29098 33.4647L7.45971 34.4306L6.58695 33.9767C6.42005 33.8891 6.23435 33.8433 6.04584 33.8433C5.85732 33.8433 5.67162 33.8891 5.50472 33.9767L4.63196 34.4306L4.80069 33.4647C4.83221 33.2785 4.81796 33.0875 4.75916 32.9081C4.70037 32.7287 4.5988 32.5662 4.46322 32.4348L3.7592 31.7424L4.73087 31.5795Z" fill="#D3D3D3"/>
</svg>
