<svg width="25" height="26" viewBox="0 0 25 26" fill="none" xmlns="http://www.w3.org/2000/svg">
<rect y="0.785156" width="25" height="25" rx="4" fill="white"/>
<path fill-rule="evenodd" clip-rule="evenodd" d="M12.5 6.94238C10.7775 6.94238 10.5615 6.94968 9.88499 6.98055C9.2099 7.01134 8.74883 7.11857 8.3454 7.27537C7.92832 7.43743 7.57462 7.6543 7.22199 8.0069C6.86939 8.35953 6.65252 8.71324 6.49046 9.13031C6.33366 9.53374 6.22643 9.99481 6.19564 10.6699C6.16478 11.3464 6.15747 11.5624 6.15747 13.2849C6.15747 15.0074 6.16478 15.2234 6.19564 15.8999C6.22643 16.575 6.33366 17.0361 6.49046 17.4395C6.65252 17.8566 6.86939 18.2103 7.22199 18.5629C7.57462 18.9155 7.92832 19.1324 8.3454 19.2945C8.74883 19.4513 9.2099 19.5585 9.88499 19.5893C10.5615 19.6201 10.7775 19.6274 12.5 19.6274C14.2225 19.6274 14.4385 19.6201 15.115 19.5893C15.7901 19.5585 16.2512 19.4513 16.6546 19.2945C17.0717 19.1324 17.4254 18.9155 17.778 18.5629C18.1306 18.2103 18.3475 17.8566 18.5096 17.4395C18.6663 17.0361 18.7736 16.575 18.8044 15.8999C18.8352 15.2234 18.8425 15.0074 18.8425 13.2849C18.8425 11.5624 18.8352 11.3464 18.8044 10.6699C18.7736 9.99481 18.6663 9.53374 18.5096 9.13031C18.3475 8.71324 18.1306 8.35953 17.778 8.0069C17.4254 7.6543 17.0717 7.43743 16.6546 7.27537C16.2512 7.11857 15.7901 7.01134 15.115 6.98055C14.4385 6.94968 14.2225 6.94238 12.5 6.94238ZM12.5 8.08518C14.1935 8.08518 14.3941 8.09165 15.0629 8.12216C15.6813 8.15036 16.0172 8.25369 16.2407 8.34055C16.5367 8.4556 16.748 8.59304 16.9699 8.815C17.1919 9.03693 17.3293 9.24822 17.4444 9.54427C17.5312 9.76776 17.6345 10.1036 17.6627 10.722C17.6933 11.3908 17.6997 11.5914 17.6997 13.2849C17.6997 14.9784 17.6933 15.179 17.6627 15.8478C17.6345 16.4662 17.5312 16.8021 17.4444 17.0256C17.3293 17.3216 17.1919 17.5329 16.9699 17.7548C16.748 17.9768 16.5367 18.1142 16.2407 18.2293C16.0172 18.3161 15.6813 18.4195 15.0629 18.4477C14.3942 18.4782 14.1937 18.4846 12.5 18.4846C10.8064 18.4846 10.6058 18.4782 9.93707 18.4477C9.31868 18.4195 8.98285 18.3161 8.75936 18.2293C8.46331 18.1142 8.25202 17.9768 8.03009 17.7548C7.80815 17.5329 7.67069 17.3216 7.55563 17.0256C7.46877 16.8021 7.36545 16.4662 7.33725 15.8478C7.30674 15.179 7.30027 14.9784 7.30027 13.2849C7.30027 11.5914 7.30674 11.3908 7.33725 10.722C7.36545 10.1036 7.46877 9.76776 7.55563 9.54427C7.67069 9.24822 7.80813 9.03693 8.03009 8.815C8.25202 8.59304 8.46331 8.4556 8.75936 8.34055C8.98285 8.25369 9.31868 8.15036 9.93707 8.12216C10.6059 8.09165 10.8065 8.08518 12.5 8.08518ZM12.5 10.0279C10.7012 10.0279 9.24303 11.4861 9.24303 13.2849C9.24303 15.0837 10.7012 16.5419 12.5 16.5419C14.2988 16.5419 15.757 15.0837 15.757 13.2849C15.757 11.4861 14.2988 10.0279 12.5 10.0279ZM12.5 15.3991C11.3324 15.3991 10.3858 14.4525 10.3858 13.2849C10.3858 12.1173 11.3324 11.1707 12.5 11.1707C13.6676 11.1707 14.6142 12.1173 14.6142 13.2849C14.6142 14.4525 13.6676 15.3991 12.5 15.3991ZM16.6468 9.89926C16.6468 10.3196 16.306 10.6604 15.8856 10.6604C15.4653 10.6604 15.1246 10.3196 15.1246 9.89926C15.1246 9.47891 15.4653 9.13814 15.8856 9.13814C16.306 9.13814 16.6468 9.47891 16.6468 9.89926Z" fill="#605BFE"/>
</svg>
