<svg width="25" height="26" viewBox="0 0 25 26" fill="none" xmlns="http://www.w3.org/2000/svg">
<rect y="0.785156" width="25" height="25" rx="4" fill="white"/>
<path fill-rule="evenodd" clip-rule="evenodd" d="M11.1829 14.9513L11.1825 11.342L14.6289 13.1529L11.1829 14.9513ZM18.7502 10.7166C18.7502 10.7166 18.6254 9.83139 18.2431 9.44159C17.758 8.92976 17.2143 8.92735 16.9652 8.89764C15.1802 8.76758 12.5027 8.76758 12.5027 8.76758H12.4972C12.4972 8.76758 9.8197 8.76758 8.03472 8.89764C7.78519 8.92735 7.24189 8.92976 6.75638 9.44159C6.37412 9.83139 6.24975 10.7166 6.24975 10.7166C6.24975 10.7166 6.12219 11.7563 6.12219 12.7956V13.7703C6.12219 14.81 6.24975 15.8493 6.24975 15.8493C6.24975 15.8493 6.37412 16.7345 6.75638 17.1243C7.24189 17.6361 7.87926 17.6201 8.16307 17.6735C9.18351 17.7722 12.4999 17.8027 12.4999 17.8027C12.4999 17.8027 15.1802 17.7987 16.9652 17.6687C17.2143 17.6385 17.758 17.6361 18.2431 17.1243C18.6254 16.7345 18.7502 15.8493 18.7502 15.8493C18.7502 15.8493 18.8777 14.81 18.8777 13.7703V12.7956C18.8777 11.7563 18.7502 10.7166 18.7502 10.7166Z" fill="#605BFE"/>
</svg>
