<svg width="22" height="23" viewBox="0 0 22 23" fill="none" xmlns="http://www.w3.org/2000/svg">
<circle cx="11" cy="11.9785" r="11" fill="#5B93FF"/>
<path d="M16.0548 14.4796L14.5628 12.9875C14.0299 12.4547 13.124 12.6678 12.9109 13.3606C12.751 13.8402 12.2182 14.1066 11.7386 14C10.6728 13.7336 9.23408 12.3481 8.96765 11.2291C8.80779 10.7495 9.12751 10.2166 9.60709 10.0568C10.2998 9.8436 10.513 8.93772 9.9801 8.40485L8.48807 6.91281C8.06177 6.5398 7.42232 6.5398 7.04931 6.91281L6.03686 7.92527C5.0244 8.99101 6.14343 11.8152 8.64793 14.3197C11.1524 16.8242 13.9766 17.9966 15.0424 16.9308L16.0548 15.9183C16.4279 15.492 16.4279 14.8526 16.0548 14.4796Z" fill="white"/>
</svg>
