<svg width="25" height="26" viewBox="0 0 25 26" fill="none" xmlns="http://www.w3.org/2000/svg">
<rect y="0.785156" width="25" height="25" rx="4" fill="white"/>
<path fill-rule="evenodd" clip-rule="evenodd" d="M18.923 9.19991C18.451 9.41486 17.9428 9.56022 17.4097 9.62517C17.9541 9.29115 18.3718 8.7615 18.5686 8.13056C18.0589 8.43984 17.4956 8.66484 16.8939 8.78546C16.4144 8.26046 15.729 7.93262 14.9705 7.93262C13.516 7.93262 12.3359 9.14269 12.3359 10.635C12.3359 10.8468 12.3586 11.0525 12.4038 11.2505C10.2134 11.1376 8.27183 10.0628 6.97116 8.42592C6.7442 8.82644 6.61451 9.29114 6.61451 9.786C6.61451 10.7231 7.07974 11.5505 7.787 12.0353C7.35571 12.0221 6.94854 11.8992 6.59265 11.6981V11.7314C6.59265 13.0412 7.50123 14.1337 8.70765 14.3812C8.48672 14.4446 8.25373 14.4763 8.0132 14.4763C7.84355 14.4763 7.67767 14.46 7.51706 14.4283C7.8526 15.5016 8.82527 16.2833 9.97891 16.3041C9.07711 17.0294 7.94006 17.4616 6.70575 17.4616C6.49312 17.4616 6.28275 17.4493 6.0769 17.4245C7.24336 18.19 8.62923 18.6377 10.1169 18.6377C14.9652 18.6377 17.6155 14.5203 17.6155 10.9489C17.6155 10.8314 17.6133 10.7138 17.6087 10.5986C18.1237 10.2174 18.5709 9.74193 18.923 9.19991Z" fill="#605BFE"/>
</svg>
