<svg width="22" height="23" viewBox="0 0 22 23" fill="none" xmlns="http://www.w3.org/2000/svg">
<circle cx="11" cy="11.9785" r="11" fill="#5B93FF"/>
<path d="M11.7533 12.994C11.529 13.1435 11.2685 13.2225 11 13.2225C10.7314 13.2225 10.471 13.1435 10.2467 12.994L6.55327 10.5316C6.53278 10.5179 6.51281 10.5037 6.49326 10.489V14.5239C6.49326 14.9865 6.86867 15.3537 7.323 15.3537H14.6769C15.1396 15.3537 15.5067 14.9782 15.5067 14.5239V10.489C15.4871 10.5037 15.4671 10.518 15.4466 10.5317L11.7533 12.994Z" fill="white"/>
<path d="M6.84625 10.0922L10.5397 12.5546C10.6795 12.6478 10.8398 12.6944 11 12.6944C11.1602 12.6944 11.3205 12.6478 11.4603 12.5546L15.1538 10.0922C15.3748 9.94496 15.5067 9.6985 15.5067 9.43249C15.5067 8.97511 15.1346 8.60303 14.6773 8.60303H7.32275C6.86539 8.60304 6.49329 8.97513 6.49329 9.43293C6.49329 9.6985 6.62525 9.94496 6.84625 10.0922Z" fill="white"/>
</svg>
